# xmcd
#
# Track frame offsets: 
#        150
#        28106
#        42431
#        69566
#
# Disc length: 1913 seconds
#
# Revision: 2
# Processed by: cddbd v1.5.2PL0 Copyright (c) Steve Scherf et al.
# Submitted via: ExactAudioCopyFreeDBPlugin 1.0
#
DISCID=32077704
DTITLE=Brothers Keepers - Bereit
DYEAR=2005
DGENRE=Hip Hop
TTITLE0=Bereit (Main Version)
TTITLE1=Bereit (Part One)
TTITLE2=Bereit (Part Two)
TTITLE3=DATA
EXTD=BrothersKeepers4ever YEAR: 2005
EXTT0=
EXTT1=
EXTT2=
EXTT3=
PLAYORDER=
